<svg id="Group_13521" data-name="Group 13521" xmlns="http://www.w3.org/2000/svg" width="24.656" height="24.656" viewBox="0 0 24.656 24.656">
  <g id="Group_11906" data-name="Group 11906" transform="translate(10.161 10.161)">
    <g id="Group_11905" data-name="Group 11905">
      <path id="Path_22485" data-name="Path 22485" d="M213.166,215.333a2.167,2.167,0,1,1,2.167-2.167A2.17,2.17,0,0,1,213.166,215.333Z" transform="translate(-210.999 -210.999)" fill="#999"/>
    </g>
  </g>
  <g id="Group_11908" data-name="Group 11908" transform="translate(10.161 15.94)">
    <g id="Group_11907" data-name="Group 11907">
      <path id="Path_22486" data-name="Path 22486" d="M213.166,95.333a2.167,2.167,0,1,1,2.167-2.167A2.169,2.169,0,0,1,213.166,95.333Z" transform="translate(-210.999 -90.999)" fill="#999"/>
    </g>
  </g>
  <g id="Group_11910" data-name="Group 11910" transform="translate(0 0)">
    <g id="Group_11909" data-name="Group 11909">
      <path id="Path_22487" data-name="Path 22487" d="M23.6,14.882,14.882,23.6a3.616,3.616,0,0,1-5.107,0L1.057,14.882a3.616,3.616,0,0,1,0-5.107L9.775,1.057a3.616,3.616,0,0,1,5.107,0L23.6,9.775A3.616,3.616,0,0,1,23.6,14.882Zm-7.309-8.9a3.964,3.964,0,1,0-7.927,0V18.671a3.964,3.964,0,0,0,7.927,0Z" transform="translate(0 0)" fill="#999"/>
    </g>
  </g>
  <g id="Group_11912" data-name="Group 11912" transform="translate(10.161 4.382)">
    <g id="Group_11911" data-name="Group 11911">
      <path id="Path_22488" data-name="Path 22488" d="M213.166,335.334a2.167,2.167,0,1,1,2.167-2.167A2.169,2.169,0,0,1,213.166,335.334Z" transform="translate(-210.999 -331)" fill="#999"/>
    </g>
  </g>
</svg>
