<svg xmlns="http://www.w3.org/2000/svg" width="30.381" height="30.381" viewBox="0 0 30.381 30.381">
  <g id="Group_13477" data-name="Group 13477" transform="translate(531.2 367.2)">
    <path id="Path_23455" data-name="Path 23455" d="M-531.2-350.818v-.593a1.765,1.765,0,0,0,.067-.268,14.72,14.72,0,0,1,.676-3.361,15.051,15.051,0,0,1,8.425-9.277,14.415,14.415,0,0,1,4.3-1.146,3.263,3.263,0,0,0,.429.139,15.935,15.935,0,0,1,4.749,1.7c-.042.055-.082.11-.125.163a5.959,5.959,0,0,0-1.39,3.574,5.448,5.448,0,0,0,.456,2.183c-.112.081-.223.163-.336.242l-16.559,11.527c-.176-.8-.358-1.595-.524-2.395-.073-.35-.113-.707-.168-1.061v-1.424Zm10.659-6.343a4.213,4.213,0,0,1-.145.416,2.109,2.109,0,0,1-2.3,1.192,2.125,2.125,0,0,1-1.762-2.167,2.132,2.132,0,0,1,1.956-2.058,2.3,2.3,0,0,1,1.595.517.483.483,0,0,0,.71-.075.5.5,0,0,0-.1-.689,3.139,3.139,0,0,0-3.821-.188,3.11,3.11,0,0,0,.366,5.335,3.124,3.124,0,0,0,4.543-2.666c0-.4-.163-.591-.562-.6-.6-.012-1.206-.01-1.81,0-.368.006-.577.2-.574.5s.217.48.586.484C-521.432-357.159-521.009-357.162-520.541-357.162Z" transform="translate(0 -1.606)" fill="#26b43b"/>
    <path id="Path_23456" data-name="Path 23456" d="M-299.82-359.314a5.447,5.447,0,0,1-.456-2.183,5.959,5.959,0,0,1,1.39-3.574c.043-.053.084-.109.126-.163l1.37-1.128c.592-.231,1.182-.467,1.776-.692.167-.063.345-.1.518-.145h1.424c.029.02.056.053.087.056a5.22,5.22,0,0,1,1.966.6,5.879,5.879,0,0,1,3.238,4.941,5.217,5.217,0,0,1-.479,2.353c-.247.46-.462.941-.748,1.375-.579.88-1.2,1.736-1.8,2.6-.816.94-1.626,1.884-2.449,2.817a.542.542,0,0,1-.931.006c-.766-.865-1.527-1.735-2.273-2.617-.406-.481-.778-.992-1.165-1.489a.837.837,0,0,0-.052-.136Q-299.048-358-299.82-359.314Zm5.5-5.223a2.635,2.635,0,0,0-2.671,2.636,2.66,2.66,0,0,0,2.661,2.655,2.658,2.658,0,0,0,2.671-2.645A2.634,2.634,0,0,0-294.321-364.536Z" transform="translate(-213.791)" fill="#cc2900"/>
    <path id="Path_23457" data-name="Path 23457" d="M-232.277-256c.6-.866,1.22-1.721,1.8-2.6.286-.434.5-.915.748-1.375.108.22.22.439.324.662a15.088,15.088,0,0,1,1.343,4.533c.051.4.111.808.167,1.213v1.78a.714.714,0,0,0-.058.155c-.059.45-.1.9-.172,1.35a14.956,14.956,0,0,1-3.934,7.972,13.439,13.439,0,0,1-2.895,2.385l-1.412-1.954-.044-.11c.343-.365.7-.715,1.026-1.1a14.849,14.849,0,0,0,2.777-5.054,15.207,15.207,0,0,0,.664-5.671C-231.987-254.543-232.162-255.268-232.277-256Z" transform="translate(-272.923 -99.274)" fill="#7a797f"/>
    <path id="Path_23458" data-name="Path 23458" d="M-351.294,13.516l-.648-.128c.066-.017.132-.036.2-.052.786-.188,1.581-.344,2.355-.572a15.061,15.061,0,0,0,3.377-1.563l1.026,1.427c-.813.217-1.621.454-2.44.642-.458.105-.935.127-1.4.189-.032,0-.061.036-.092.055h-2.374Z" transform="translate(-165.961 -350.335)" fill="#1e81ce"/>
    <path id="Path_23459" data-name="Path 23459" d="M-349.6-367.071l.89-.129h1.543c.471.06.948.086,1.41.186.906.2,1.8.432,2.7.651l-1.37,1.128a15.935,15.935,0,0,0-4.749-1.7A3.262,3.262,0,0,1-349.6-367.071Z" transform="translate(-168.128)" fill="#1faa33"/>
    <path id="Path_23460" data-name="Path 23460" d="M-336,42.4h0Z" transform="translate(-180.721 -379.219)" fill="#3f98d5"/>
    <path id="Path_23461" data-name="Path 23461" d="M-531.2-168v0Z" transform="translate(0 -184.425)" fill="#87c596"/>
    <path id="Path_23462" data-name="Path 23462" d="M-520.424-245.8a12.909,12.909,0,0,1-1.442-3.3l16.559-11.527c.113-.079.224-.161.336-.242q.772,1.312,1.543,2.624a.837.837,0,0,1,.052.136q-.839.607-1.678,1.214l-3.781,2.747-2.676,1.937c-.059.035-.121.065-.176.1Z" transform="translate(-8.642 -98.438)" fill="#fdcd01"/>
    <path id="Path_23463" data-name="Path 23463" d="M-452.473-298.6c-.467,0-.89,0-1.313,0-.369,0-.583-.184-.586-.484s.205-.493.574-.5c.6-.009,1.207-.011,1.81,0,.4.008.566.2.562.6a3.124,3.124,0,0,1-4.543,2.666,3.11,3.11,0,0,1-.366-5.335,3.139,3.139,0,0,1,3.821.188.5.5,0,0,1,.1.689.483.483,0,0,1-.71.075,2.3,2.3,0,0,0-1.595-.517,2.132,2.132,0,0,0-1.956,2.058,2.125,2.125,0,0,0,1.762,2.167,2.109,2.109,0,0,0,2.3-1.192A4.213,4.213,0,0,0-452.473-298.6Z" transform="translate(-68.069 -60.171)" fill="#fbfdfb"/>
    <path id="Path_23464" data-name="Path 23464" d="M-346.188-219.707l3.781-2.747q.838-.608,1.678-1.214c.387.5.758,1.008,1.165,1.489.746.882,1.507,1.752,2.273,2.617a.542.542,0,0,0,.931-.006c.823-.933,1.634-1.877,2.449-2.817.115.729.29,1.454.333,2.187a15.207,15.207,0,0,1-.664,5.671,14.85,14.85,0,0,1-2.777,5.054c-.324.381-.683.732-1.026,1.1-.044-.053-.092-.1-.132-.158Z" transform="translate(-171.289 -132.886)" fill="#89878f"/>
    <path id="Path_23465" data-name="Path 23465" d="M-253.275-331.315a2.634,2.634,0,0,1,2.661,2.646,2.658,2.658,0,0,1-2.671,2.645,2.66,2.66,0,0,1-2.661-2.655A2.635,2.635,0,0,1-253.275-331.315Z" transform="translate(-254.837 -33.221)" fill="#891d00"/>
    <path id="Path_23466" data-name="Path 23466" d="M-379.591-170.269l8.01,11.173c.04.056.088.106.132.158l.044.11a1.757,1.757,0,0,0-.25.145c-.466.381-.915.783-1.394,1.147-.327.248-.693.446-1.041.667q-1.044-1.458-2.087-2.916-3.047-4.272-6.091-8.546Z" transform="translate(-137.886 -182.324)" fill="#fdfefd"/>
    <path id="Path_23467" data-name="Path 23467" d="M-272.012-14.063c.348-.22.714-.418,1.041-.667.479-.364.928-.766,1.394-1.147a1.759,1.759,0,0,1,.25-.145l1.412,1.954a13.038,13.038,0,0,1-3.069,1.493L-272.011-14Z" transform="translate(-239.963 -325.131)" fill="#dfdfe2"/>
    <path id="Path_23468" data-name="Path 23468" d="M-485.337-132.688v.061a15.061,15.061,0,0,1-3.377,1.563c-.774.227-1.569.383-2.355.572-.066.016-.132.035-.2.052a14.408,14.408,0,0,1-4.608-1.326,15.25,15.25,0,0,1-6.49-5.837,1.384,1.384,0,0,1-.064-.132l8.737-6.31c.055-.04.117-.07.176-.1q3.045,4.273,6.091,8.546Q-486.383-134.144-485.337-132.688Z" transform="translate(-26.638 -206.506)" fill="#3d9ae2"/>
  </g>
</svg>
