<svg width="104" height="104" viewBox="0 0 104 104" fill="none" xmlns="http://www.w3.org/2000/svg">
<circle cx="52" cy="52" r="52" fill="white"/>
<path fill-rule="evenodd" clip-rule="evenodd" d="M51.9999 43.415C51.9999 38.6737 55.8435 34.8301 60.5848 34.8301C61.4501 34.8301 62.2875 34.9585 63.0781 35.1981C63.4906 35.3231 63.8072 35.6555 63.912 36.0736C64.0168 36.4918 63.8943 36.9342 63.5896 37.239L58.1628 42.6658C58.2636 43.4435 58.6124 44.193 59.2096 44.7902C59.8067 45.3873 60.5563 45.7361 61.334 45.837L66.7608 40.4102C67.0656 40.1054 67.508 39.983 67.9261 40.0878C68.3443 40.1926 68.6767 40.5092 68.8017 40.9217C69.0413 41.7122 69.1697 42.5497 69.1697 43.415C69.1697 48.1563 65.3261 51.9999 60.5848 51.9999C60.3387 51.9999 60.0947 51.9895 59.8534 51.9691C58.19 51.8285 56.7973 52.1334 56.0788 53.0058L44.3851 67.2053C43.3608 68.4491 41.8339 69.1697 40.2225 69.1697C37.2444 69.1697 34.8301 66.7554 34.8301 63.7773C34.8301 62.1659 35.5507 60.639 36.7945 59.6147L50.994 47.9209C51.8664 47.2025 52.1713 45.8098 52.0307 44.1464C52.0103 43.905 51.9999 43.6611 51.9999 43.415ZM39.1098 63.6509C39.1098 62.9736 39.6589 62.4245 40.3362 62.4245H40.3485C41.0258 62.4245 41.5749 62.9736 41.5749 63.6509V63.6632C41.5749 64.3405 41.0258 64.8896 40.3485 64.8896H40.3362C39.6589 64.8896 39.1098 64.3405 39.1098 63.6632V63.6509Z" fill="black"/>
<path d="M48.8537 46.5061L45.2546 42.907V40.349C45.2546 39.9182 45.0286 39.519 44.6592 39.2973L38.5271 35.6181C38.0446 35.3285 37.4269 35.4046 37.0289 35.8025L35.8025 37.0289C35.4046 37.4269 35.3285 38.0446 35.6181 38.5271L39.2973 44.6592C39.519 45.0286 39.9182 45.2546 40.349 45.2546H42.907L46.2789 48.6265L48.8537 46.5061Z" fill="black"/>
<path fill-rule="evenodd" clip-rule="evenodd" d="M52.9089 60.7135L59.7486 67.5532C61.9038 69.7084 65.3982 69.7084 67.5535 67.5532C69.7087 65.3979 69.7087 61.9035 67.5535 59.7483L62.148 54.3428C61.6374 54.4152 61.1155 54.4526 60.585 54.4526C60.2698 54.4526 59.9569 54.4393 59.6469 54.4131C59.0022 54.3586 58.5309 54.403 58.2283 54.4816C58.0589 54.5256 57.9806 54.5692 57.9552 54.5859L52.9089 60.7135ZM58.4913 58.4912C58.9703 58.0122 59.7468 58.0122 60.2257 58.4912L63.2918 61.5572C63.7707 62.0362 63.7707 62.8127 63.2918 63.2916C62.8128 63.7706 62.0363 63.7706 61.5574 63.2916L58.4913 60.2256C58.0124 59.7466 58.0124 58.9701 58.4913 58.4912Z" fill="black"/>
</svg>
