<svg xmlns="http://www.w3.org/2000/svg" width="21" height="21" viewBox="0 0 21 21">
  <path id="Path_23482" data-name="Path 23482" d="M.509-12.3,10.063-7.97a1.05,1.05,0,0,0,.873,0L20.491-12.3a.916.916,0,0,0,0-1.642L10.937-18.28a1.25,1.25,0,0,0-.437-.1,1.249,1.249,0,0,0-.437.1L.509-13.946A.917.917,0,0,0,.509-12.3ZM20.491-8.683l-2.383-1.08-6.63,3.005a2.354,2.354,0,0,1-.979.212,2.355,2.355,0,0,1-.979-.212L2.892-9.763.509-8.683a.915.915,0,0,0,0,1.641l9.554,4.331a1.053,1.053,0,0,0,.873,0l9.555-4.331A.915.915,0,0,0,20.491-8.683Zm0,5.242L18.117-4.517,11.479-1.508A2.354,2.354,0,0,1,10.5-1.3a2.355,2.355,0,0,1-.979-.212L2.883-4.517.509-3.441a.915.915,0,0,0,0,1.641L10.063,2.53a1.054,1.054,0,0,0,.873,0L20.491-1.8A.915.915,0,0,0,20.491-3.441Z" transform="translate(0 18.375)" fill="#999"/>
</svg>
