<svg xmlns="http://www.w3.org/2000/svg" width="25.612" height="25.613" viewBox="0 0 25.612 25.613">
  <g id="Path_22948" data-name="Path 22948" transform="translate(-476.824 -400.843)">
    <path id="Path_23027" data-name="Path 23027" d="M490.368,426.456a3.649,3.649,0,0,1-3.645-3.6v-6.294h-6.281a3.642,3.642,0,0,1-1.459-6.969l18.478-8.523a3.706,3.706,0,0,1,4.751,4.751l-.047.115-8.48,18.38a3.647,3.647,0,0,1-3.277,2.143Zm-2.145-12.9h1.5v9.278a.641.641,0,0,0,.644.619h.007a.646.646,0,0,0,.58-.382l8.454-18.326a.707.707,0,0,0-.437-.862.691.691,0,0,0-.44-.014l-18.308,8.45a.642.642,0,0,0,.237,1.237Z" fill="#999"/>
  </g>
</svg>
