<svg xmlns="http://www.w3.org/2000/svg" width="26" height="26" viewBox="0 0 26 26">
  <g id="Group_13527" data-name="Group 13527" transform="translate(-2 -2)">
    <path id="Path_23128" data-name="Path 23128" d="M15,4.6a1.3,1.3,0,0,0-1.3,1.3A2.469,2.469,0,0,1,9.485,7.646,1.3,1.3,0,0,0,7.646,9.485,2.469,2.469,0,0,1,5.9,13.7a1.3,1.3,0,0,0,0,2.6,2.469,2.469,0,0,1,1.746,4.215,1.3,1.3,0,0,0,1.838,1.839A2.469,2.469,0,0,1,13.7,24.1a1.3,1.3,0,1,0,2.6,0,2.469,2.469,0,0,1,4.216-1.746,1.3,1.3,0,1,0,1.838-1.838A2.469,2.469,0,0,1,24.1,16.3a1.3,1.3,0,1,0,0-2.6,2.469,2.469,0,0,1-1.746-4.215,1.3,1.3,0,0,0-1.838-1.838A2.469,2.469,0,0,1,16.3,5.9,1.3,1.3,0,0,0,15,4.6ZM11.111,5.61a3.9,3.9,0,0,1,7.779,0,3.9,3.9,0,0,1,5.5,5.5,3.9,3.9,0,0,1,0,7.779,3.9,3.9,0,0,1-5.5,5.5,3.9,3.9,0,0,1-7.779,0,3.9,3.9,0,0,1-5.5-5.5,3.9,3.9,0,0,1,0-7.779,3.9,3.9,0,0,1,5.5-5.5Z" transform="translate(0 0)" fill="#999"/>
    <path id="Path_23129" data-name="Path 23129" d="M13.2,10.6a2.6,2.6,0,1,0,1.838.762A2.6,2.6,0,0,0,13.2,10.6ZM9.523,9.523A5.2,5.2,0,1,1,8,13.2,5.2,5.2,0,0,1,9.523,9.523Z" transform="translate(1.8 1.8)" fill="#999"/>
  </g>
</svg>
