<svg xmlns="http://www.w3.org/2000/svg" width="28.75" height="23" viewBox="0 0 28.75 23">
  <path id="Path_23484" data-name="Path 23484" d="M27.955-7.947,22.78-9.968a1.392,1.392,0,0,0-1,0L16.608-7.947a1.215,1.215,0,0,0-.8,1.119,10.212,10.212,0,0,0,5.97,9.609,1.394,1.394,0,0,0,1,0,10.179,10.179,0,0,0,5.97-9.609A1.215,1.215,0,0,0,27.955-7.947ZM22.281.647V-7.848l4.29,1.676A8.036,8.036,0,0,1,22.281.647ZM10.062-8.625a5.75,5.75,0,0,0,5.75-5.75,5.75,5.75,0,0,0-5.75-5.75,5.75,5.75,0,0,0-5.75,5.75A5.75,5.75,0,0,0,10.062-8.625Zm4.312,1.8a2.554,2.554,0,0,1,.049-.323c-.112,0-.22-.036-.337-.036h-.75a7.828,7.828,0,0,1-3.275.719,7.844,7.844,0,0,1-3.275-.719h-.75A6.039,6.039,0,0,0,0-1.15V.719A2.157,2.157,0,0,0,2.156,2.875H17.969a2.211,2.211,0,0,0,.863-.18A12.069,12.069,0,0,1,14.375-6.828Z" transform="translate(0 20.125)" fill="#999"/>
</svg>
