<svg xmlns="http://www.w3.org/2000/svg" width="20.609" height="20.609" viewBox="0 0 20.609 20.609">
  <g id="history" transform="translate(-631.651 -403.345)" style="isolation: isolate">
    <g id="Group_12865" data-name="Group 12865" style="isolation: isolate">
      <g id="Group_12864" data-name="Group 12864">
        <path id="Path_23026" data-name="Path 23026" d="M641.963,423.954a10.262,10.262,0,0,1-6.474-2.282,1,1,0,0,1-.077-1.479l.468-.468a1,1,0,0,1,1.326-.082,7.646,7.646,0,1,0-.489-11.564l2.109,2.109a.664.664,0,0,1-.47,1.134h-6.04a.664.664,0,0,1-.665-.664v-6.041a.665.665,0,0,1,1.135-.469l2.051,2.051a10.3,10.3,0,1,1,7.126,17.755Zm1.381-6.876-2.718-2.113v-5.637a1,1,0,0,1,1-1h.665a1,1,0,0,1,1,1v4.336l1.691,1.316a1,1,0,0,1,.175,1.4l-.408.524A1,1,0,0,1,643.344,417.078Z" fill="#999"/>
      </g>
    </g>
  </g>
</svg>
