<svg xmlns="http://www.w3.org/2000/svg" width="20" height="20" viewBox="0 0 20 20">
  <g id="Group_13523" data-name="Group 13523" transform="translate(-2 -2)">
    <path id="Path_23132" data-name="Path 23132" d="M12,4a8,8,0,1,0,8,8A8,8,0,0,0,12,4ZM2,12A10,10,0,1,1,12,22,10,10,0,0,1,2,12Z" fill="#999"/>
    <path id="Path_23133" data-name="Path 23133" d="M12,10a1,1,0,0,1,1,1v6a1,1,0,0,1-2,0V11A1,1,0,0,1,12,10Z" fill="#999"/>
    <path id="Path_23134" data-name="Path 23134" d="M13.5,7.5A1.5,1.5,0,1,1,12,6,1.5,1.5,0,0,1,13.5,7.5Z" fill="#999"/>
  </g>
</svg>
