<svg xmlns="http://www.w3.org/2000/svg" xmlns:xlink="http://www.w3.org/1999/xlink" width="48" height="48" viewBox="0 0 48 48">
  <defs>
    <clipPath id="clip-path">
      <path id="Icon" d="M6.676,18.912v-.523h4.2v.523a2.1,2.1,0,1,1-4.2,0Zm10.139-1.595c-.008,0-.013,0-.02,0H.822c-.009,0-.017,0-.025,0a.591.591,0,0,1-.151-.03A.814.814,0,0,1,0,16.5a.8.8,0,0,1,.118-.4c.17-.389.75-.708,1.434-1.516a7.8,7.8,0,0,0,1.525-4.73s0-2.064.012-2.75A5.63,5.63,0,0,1,7.071,1.752H7.1a4.78,4.78,0,0,1,.487-.14V1.254a1.246,1.246,0,1,1,2.491,0v.369c.149.038.293.08.433.129h.041A5.63,5.63,0,0,1,14.537,7.1c.014.687.011,2.75.011,2.75a7.8,7.8,0,0,0,1.525,4.73c.554.653,1.036.986,1.293,1.3a.818.818,0,0,1-.526,1.448C16.831,17.322,16.824,17.317,16.815,17.317Z" transform="translate(0 0)" fill="#999"/>
    </clipPath>
  </defs>
  <g id="Group_13530" data-name="Group 13530" transform="translate(-132 -122)">
    <circle id="Ellipse_1635" data-name="Ellipse 1635" cx="24" cy="24" r="24" transform="translate(132 122)" fill="#fff"/>
    <g id="Group_13444" data-name="Group 13444" transform="translate(-185 -20)">
      <path id="Path_23487" data-name="Path 23487" d="M11.064-11.554c-1.006.782-2.336,1.779-6.918,5.108C3.234-5.781,1.6-4.295,0-4.308-1.595-4.3-3.194-5.754-4.142-6.446c-4.582-3.329-5.916-4.321-6.922-5.1a.269.269,0,0,0-.436.211v9.182A2.157,2.157,0,0,0-9.344,0H9.344A2.157,2.157,0,0,0,11.5-2.156v-9.187A.27.27,0,0,0,11.064-11.554ZM0-5.75c1.042.018,2.543-1.312,3.3-1.86,5.961-4.326,6.415-4.7,7.789-5.781a1.075,1.075,0,0,0,.413-.849v-.854A2.157,2.157,0,0,0,9.344-17.25H-9.344A2.157,2.157,0,0,0-11.5-15.094v.854a1.082,1.082,0,0,0,.413.849C-9.712-12.318-9.258-11.936-3.3-7.61-2.543-7.062-1.042-5.732,0-5.75Z" transform="translate(341 175)" fill="#999"/>
    </g>
  </g>
</svg>
