<svg xmlns="http://www.w3.org/2000/svg" xmlns:xlink="http://www.w3.org/1999/xlink" width="48" height="48" viewBox="0 0 48 48">
  <defs>
    <clipPath id="clip-path">
      <path id="Icon" d="M6.676,18.912v-.523h4.2v.523a2.1,2.1,0,1,1-4.2,0Zm10.139-1.595c-.008,0-.013,0-.02,0H.822c-.009,0-.017,0-.025,0a.591.591,0,0,1-.151-.03A.814.814,0,0,1,0,16.5a.8.8,0,0,1,.118-.4c.17-.389.75-.708,1.434-1.516a7.8,7.8,0,0,0,1.525-4.73s0-2.064.012-2.75A5.63,5.63,0,0,1,7.071,1.752H7.1a4.78,4.78,0,0,1,.487-.14V1.254a1.246,1.246,0,1,1,2.491,0v.369c.149.038.293.08.433.129h.041A5.63,5.63,0,0,1,14.537,7.1c.014.687.011,2.75.011,2.75a7.8,7.8,0,0,0,1.525,4.73c.554.653,1.036.986,1.293,1.3a.818.818,0,0,1-.526,1.448C16.831,17.322,16.824,17.317,16.815,17.317Z" transform="translate(0 0)" fill="#999"/>
    </clipPath>
  </defs>
  <g id="Group_13534" data-name="Group 13534" transform="translate(-289 -123)">
    <circle id="Ellipse_1635" data-name="Ellipse 1635" cx="24" cy="24" r="24" transform="translate(289 123)" fill="#fff"/>
    <path id="Icon-2" data-name="Icon" d="M6.676,18.912v-.523h4.2v.523a2.1,2.1,0,1,1-4.2,0Zm10.139-1.595c-.008,0-.013,0-.02,0H.822c-.009,0-.017,0-.025,0a.591.591,0,0,1-.151-.03A.814.814,0,0,1,0,16.5a.8.8,0,0,1,.118-.4c.17-.389.75-.708,1.434-1.516a7.8,7.8,0,0,0,1.525-4.73s0-2.064.012-2.75A5.63,5.63,0,0,1,7.071,1.752H7.1a4.78,4.78,0,0,1,.487-.14V1.254a1.246,1.246,0,1,1,2.491,0v.369c.149.038.293.08.433.129h.041A5.63,5.63,0,0,1,14.537,7.1c.014.687.011,2.75.011,2.75a7.8,7.8,0,0,0,1.525,4.73c.554.653,1.036.986,1.293,1.3a.818.818,0,0,1-.526,1.448C16.831,17.322,16.824,17.317,16.815,17.317Z" transform="translate(304.168 136.486)" fill="#999"/>
  </g>
</svg>
