<svg xmlns="http://www.w3.org/2000/svg" width="30" height="30" viewBox="0 0 30 30">
  <g id="Group_13225" data-name="Group 13225" transform="translate(-232 -170)">
    <circle id="Ellipse_1687" data-name="Ellipse 1687" cx="15" cy="15" r="15" transform="translate(232 170)" fill="#0a84ff"/>
    <path id="Icon" d="M4.536,12.85v-.355H7.393v.355a1.429,1.429,0,1,1-2.857,0Zm6.889-1.084c-.005,0-.009,0-.013,0H.559c-.006,0-.011,0-.017,0a.4.4,0,0,1-.1-.021A.553.553,0,0,1,0,11.208a.545.545,0,0,1,.08-.273c.115-.264.51-.481.974-1.03A5.3,5.3,0,0,0,2.091,6.691s0-1.4.008-1.869A3.825,3.825,0,0,1,4.8,1.19h.022a3.248,3.248,0,0,1,.331-.1V.852a.846.846,0,1,1,1.693,0V1.1c.1.026.2.055.294.087h.028A3.825,3.825,0,0,1,9.877,4.823c.01.466.008,1.869.008,1.869a5.3,5.3,0,0,0,1.036,3.214c.376.444.7.67.878.88a.556.556,0,0,1-.357.984C11.436,11.769,11.431,11.766,11.425,11.766Z" transform="translate(240.999 178.535)" fill="#fff"/>
  </g>
</svg>
