<svg xmlns="http://www.w3.org/2000/svg" width="16.381" height="21.315" viewBox="0 0 16.381 21.315">
  <g id="XMLID_88_" transform="translate(-56.988)">
    <g id="XMLID_91_" transform="translate(56.988 8.468)">
      <path id="XMLID_94_" d="M61.4,195.622l-1.236.978H58.558a1.57,1.57,0,0,0,0,3.141h2.156a1.568,1.568,0,0,0,.974-.339l.873-.691v2.28l-2.076.548a1.755,1.755,0,0,0-1.23,2.208l1.1,3.606a1.572,1.572,0,0,0,1.5,1.116,1.573,1.573,0,0,0,1.5-2.027l-.677-2.236,2.494-.656,2.5.656L67,206.443a1.57,1.57,0,1,0,3.006.911l1.1-3.611a1.755,1.755,0,0,0-1.232-2.207l-3.1-.816Z" transform="translate(-56.988 -195.622)" fill="#999"/>
    </g>
    <path id="XMLID_90_" d="M207.668,166.587h-1.609l-2.782-2.2a1.54,1.54,0,0,0-.2-.133,4.17,4.17,0,0,1-4.048,0c-.007,0-.015,0-.021.009l4.7,4.469.83.658a1.572,1.572,0,0,0,.975.339h2.156a1.57,1.57,0,0,0,0-3.141Z" transform="translate(-135.869 -157.141)" fill="#999"/>
    <path id="XMLID_89_" d="M173.4,6.588a3.294,3.294,0,1,0-3.294-3.293A3.294,3.294,0,0,0,173.4,6.588Z" transform="translate(-108.221)" fill="#999"/>
  </g>
</svg>
