<svg xmlns="http://www.w3.org/2000/svg" width="49" height="49" viewBox="0 0 49 49">
  <g id="Group_13519" data-name="Group 13519" transform="translate(-53 -123)">
    <g id="Group_13334" data-name="Group 13334" transform="translate(-273 -453)">
      <circle id="Ellipse_1635" data-name="Ellipse 1635" cx="24.5" cy="24.5" r="24.5" transform="translate(326 576)" fill="#aeaeb2"/>
    </g>
    <path id="Path_23479" data-name="Path 23479" d="M11.707,5.293a1,1,0,0,1,0,1.414L7.414,11H19a1,1,0,0,1,0,2H7.414l4.293,4.293a1,1,0,0,1-1.414,1.414l-6-6a1,1,0,0,1,0-1.414l6-6A1,1,0,0,1,11.707,5.293Z" transform="translate(66 136)" fill="#fff"/>
  </g>
</svg>
