<svg xmlns="http://www.w3.org/2000/svg" width="30" height="30" viewBox="0 0 30 30">
  <g id="Group_12599" data-name="Group 12599" transform="translate(-126 -9052)">
    <circle id="Ellipse_1636" data-name="Ellipse 1636" cx="15" cy="15" r="15" transform="translate(126 9052)" fill="#0a84ff"/>
    <path id="Path_23490" data-name="Path 23490" d="M10.506-12H1.494A1.494,1.494,0,0,0,0-10.506v9.012A1.494,1.494,0,0,0,1.494,0h9.012A1.494,1.494,0,0,0,12-1.494v-9.012A1.494,1.494,0,0,0,10.506-12Zm5.919,1.178L13-8.459v4.919l3.425,2.359A1,1,0,0,0,18-1.987v-8.028A1,1,0,0,0,16.425-10.822Z" transform="translate(132 9073)" fill="#fff"/>
  </g>
</svg>
