<svg xmlns="http://www.w3.org/2000/svg" width="22.498" height="20.003" viewBox="0 0 22.498 20.003">
  <path id="Path_23483" data-name="Path 23483" d="M21.336-17.121a.608.608,0,0,0-1.105-.047,6.7,6.7,0,0,1-5.855,3.418H11.25a7.5,7.5,0,0,0-7.5,7.5,7.721,7.721,0,0,0,.059.8A18.689,18.689,0,0,1,15-8.75a.627.627,0,0,1,.625.625A.627.627,0,0,1,15-7.5C5.18-7.5,1.016-1.48.094.781A1.252,1.252,0,0,0,2.41,1.73,10.277,10.277,0,0,1,5.219-1.809a7.483,7.483,0,0,0,6.832,3.016C18.184.762,22.5-4.738,22.5-11.473A14.2,14.2,0,0,0,21.336-17.121Z" transform="translate(-0.002 17.501)" fill="#999"/>
</svg>
