<svg xmlns="http://www.w3.org/2000/svg" width="31.856" height="22.64" viewBox="0 0 31.856 22.64">
  <path id="Path_23480" data-name="Path 23480" d="M792.278,408.827a6.572,6.572,0,0,0-4.812,0,.76.76,0,0,0-.564.565c-.027.2-.128.227-.281.248-.485.069-.969.149-1.455.212a1.023,1.023,0,0,0-.73.35c-.048.061-.126.117-.09.2s.132.06.207.05c.446-.058.894-.112,1.339-.179a3.689,3.689,0,0,1,2.617.213c-.056.182-.252.267-.4.386q-3.111,2.515-6.23,5.016c-.734.59-1.477,1.169-2.2,1.773a.534.534,0,0,1-.652.091c-.158-.108.049-.3.117-.442.78-1.625,1.568-3.246,2.351-4.869a2.589,2.589,0,0,1,.95-1.094,6.87,6.87,0,0,0,1.642-1.495,7.356,7.356,0,0,0-.746-9.979,7.385,7.385,0,0,0-12.4,4.48,7.1,7.1,0,0,0,3.376,7.144,1.489,1.489,0,0,1,.551.6c.726,1.488,1.462,2.973,2.193,4.46.158.321.307.647.461.969.068.14.1.243-.119.272a2.86,2.86,0,0,1-1.692-.188c-2.846-1.326-5.715-2.6-8.573-3.9-.134-.061-.308-.078-.385-.254.254-.172.589-.277.673-.591.064-.238.192-.281.389-.3,1.462-.162,2.925-.319,4.384-.5a6.305,6.305,0,0,0,1.406-.239,1.1,1.1,0,0,0-.922-.314q-2.668.3-5.333.6a.548.548,0,0,1-.346-.018,6.043,6.043,0,0,0-3.174-.549,4.015,4.015,0,0,0-2.829.935v.4a1.84,1.84,0,0,0,.929.643,6.493,6.493,0,0,0,3.257.274,2.7,2.7,0,0,1,1.861.378c2.5,1.386,5.023,2.745,7.538,4.111.2.112.387.184.126.446a.527.527,0,0,0,.048.81,2.173,2.173,0,0,0,.886.514,8.281,8.281,0,0,0,3.376.366,5.5,5.5,0,0,0,2.406-.612c.733-.424.749-.925.037-1.38-.237-.151-.289-.237-.059-.453q3.827-3.6,7.642-7.207a.589.589,0,0,1,.483-.228,5.067,5.067,0,0,0,1.308-.061,2.744,2.744,0,0,0,2.019-.865V409.3A1.4,1.4,0,0,0,792.278,408.827Zm-18-3.518a3.995,3.995,0,1,1,3.968,4.052A4.042,4.042,0,0,1,774.278,405.309Z" transform="translate(-761 -397.812)" fill="#999"/>
</svg>
