<svg width="49" height="49" viewBox="0 0 49 49" fill="none" xmlns="http://www.w3.org/2000/svg">
<g clip-path="url(#clip0_42_19)">
<path d="M24.5 49C38.031 49 49 38.031 49 24.5C49 10.969 38.031 0 24.5 0C10.969 0 0 10.969 0 24.5C0 38.031 10.969 49 24.5 49Z" fill="white"/>
<path d="M30.724 34.4819C30.648 34.4629 30.571 34.4429 30.495 34.4259C30.1213 34.3348 29.7817 34.1381 29.517 33.859C27.6897 32.0276 25.8607 30.198 24.03 28.37C23.9483 28.3121 23.8816 28.2355 23.8356 28.1466C23.7896 28.0576 23.7656 27.9591 23.7656 27.859C23.7656 27.7589 23.7896 27.6602 23.8356 27.5712C23.8816 27.4823 23.9483 27.4057 24.03 27.3479C24.117 27.2609 24.213 27.1829 24.286 27.1179L18.135 20.9679C18.0801 21.0529 18.0183 21.1333 17.95 21.208C17.889 21.2811 17.8115 21.3387 17.7239 21.3759C17.6363 21.4132 17.541 21.429 17.446 21.4222C17.3511 21.4154 17.2591 21.3859 17.1777 21.3365C17.0963 21.2871 17.0279 21.219 16.978 21.1379C16.3813 20.3379 15.7887 19.5329 15.2 18.7229C15.0959 18.6013 15.044 18.4435 15.0559 18.2839C15.0677 18.1243 15.1421 17.9758 15.263 17.8709C15.5923 17.5376 15.9257 17.2043 16.263 16.8709C16.3657 16.7522 16.5109 16.6785 16.6674 16.6656C16.8239 16.6527 16.9792 16.7017 17.1 16.802C17.912 17.3953 18.722 17.9919 19.53 18.5919C19.6111 18.642 19.679 18.7109 19.7282 18.7926C19.7774 18.8742 19.8064 18.9664 19.8128 19.0615C19.8193 19.1566 19.803 19.2519 19.7653 19.3394C19.7276 19.427 19.6695 19.5042 19.596 19.5649C19.519 19.6449 19.437 19.7189 19.371 19.7829L25.512 25.9239C25.5764 25.8309 25.6465 25.7421 25.722 25.6579C25.7795 25.578 25.8552 25.5129 25.9429 25.468C26.0305 25.4231 26.1276 25.3997 26.226 25.3997C26.3245 25.3997 26.4215 25.4231 26.5092 25.468C26.5968 25.5129 26.6725 25.578 26.73 25.6579L31.315 30.2419C31.651 30.5779 31.997 30.9059 32.315 31.2539C32.5252 31.4751 32.6791 31.7436 32.764 32.0367C32.8489 32.3298 32.8623 32.639 32.8029 32.9383C32.7435 33.2376 32.6132 33.5183 32.4228 33.7568C32.2325 33.9953 31.9877 34.1846 31.709 34.3089C31.5195 34.3783 31.3257 34.4358 31.129 34.4809L30.724 34.4819Z" fill="#33D84C"/>
<path d="M16.756 34.4819C16.3461 34.4199 15.9625 34.2424 15.65 33.97C15.2893 33.6298 15.0737 33.1637 15.048 32.6686C15.0223 32.1735 15.1885 31.6875 15.512 31.3119C15.561 31.2559 15.612 31.2029 15.665 31.1509L21.229 25.5869C21.263 25.5529 21.3 25.5199 21.35 25.4729L22.15 26.2729C22.398 26.5219 22.65 26.767 22.893 27.022C22.9147 27.0465 22.9304 27.0756 22.9391 27.1072C22.9478 27.1387 22.9491 27.1718 22.943 27.204C22.8149 27.484 22.7722 27.7955 22.8202 28.0996C22.8682 28.4038 23.0048 28.687 23.213 28.9139C23.2257 28.9321 23.2371 28.9511 23.247 28.9709C23.202 29.0179 23.158 29.0709 23.111 29.1139C21.623 30.6019 20.129 32.0839 18.651 33.5819C18.2718 34.0405 17.7489 34.3577 17.167 34.4819H16.756Z" fill="#33D84C"/>
<path d="M23.8569 22.9559C24.2909 22.5229 24.7079 22.1019 25.1309 21.6889C25.1706 21.6576 25.1989 21.6142 25.2113 21.5652C25.2238 21.5162 25.2198 21.4644 25.1999 21.4179C24.9272 20.6403 24.8808 19.8012 25.0661 18.9983C25.2515 18.1953 25.6609 17.4614 26.2469 16.8819C26.7355 16.3614 27.3445 15.9689 28.0204 15.7389C28.6963 15.5089 29.4183 15.4485 30.1229 15.563C30.2069 15.5658 30.288 15.5937 30.3559 15.643C30.4238 15.6924 30.4754 15.761 30.5039 15.8399C30.5326 15.9222 30.5351 16.0113 30.5109 16.095C30.4867 16.1786 30.4371 16.2528 30.3689 16.307C30.0689 16.607 29.7689 16.896 29.4799 17.198C29.2283 17.4439 29.0471 17.7526 28.9551 18.0921C28.863 18.4317 28.8635 18.7898 28.9564 19.1291C29.0494 19.4685 29.2314 19.7767 29.4836 20.022C29.7359 20.2672 30.0491 20.4405 30.3909 20.5239C30.7026 20.6099 31.0312 20.6139 31.3449 20.5354C31.6585 20.4569 31.9465 20.2986 32.1809 20.0759C32.5089 19.7759 32.8169 19.4549 33.1279 19.1379C33.1851 19.0604 33.2651 19.0026 33.3567 18.9726C33.4483 18.9427 33.547 18.9421 33.6389 18.9709C33.8459 19.0459 33.8939 19.2239 33.9189 19.4289C34.0382 20.3965 33.8471 21.3771 33.3729 22.229C32.95 22.9696 32.3253 23.5749 31.5716 23.9741C30.8179 24.3733 29.9663 24.5502 29.1159 24.484C28.7746 24.4355 28.4361 24.3686 28.1019 24.2839C28.0632 24.2684 28.0206 24.2654 27.9801 24.2752C27.9396 24.2851 27.9032 24.3074 27.8759 24.339C27.7049 24.525 27.5239 24.7009 27.3389 24.8889C27.1907 24.7408 27.014 24.6245 26.8193 24.547C26.6247 24.4694 26.4164 24.4324 26.2069 24.438C26.0066 24.4639 25.8079 24.5016 25.6119 24.5509C25.5524 24.5646 25.4898 24.5543 25.4379 24.522C24.9139 24.014 24.3959 23.4939 23.8569 22.9559Z" fill="#33D84C"/>
</g>
<defs>
<clipPath id="clip0_42_19">
<rect width="49" height="49" fill="white"/>
</clipPath>
</defs>
</svg>
