<svg xmlns="http://www.w3.org/2000/svg" width="26.156" height="26.157" viewBox="0 0 26.156 26.157">
    <g id="user-circle" transform="translate(-693.877 -400.571)" style="isolation: isolate">
        <g id="Group_12867" data-name="Group 12867" style="isolation: isolate">
            <g id="Group_12866" data-name="Group 12866">
                <path id="Path_23028" data-name="Path 23028"
                    d="M720.033,413.65a13.078,13.078,0,1,1-13.078-13.079A13.076,13.076,0,0,1,720.033,413.65Zm-2.531,0a10.547,10.547,0,1,0-19.127,6.112,7.01,7.01,0,0,1,5.543-2.737,9.387,9.387,0,0,0,6.075,0,6.994,6.994,0,0,1,5.542,2.737A10.466,10.466,0,0,0,717.5,413.65Zm-3.686,7.994a4.554,4.554,0,0,0-3.67-2.083,10.588,10.588,0,0,1-3.191.507,10.71,10.71,0,0,1-3.19-.507,4.542,4.542,0,0,0-3.67,2.083,10.5,10.5,0,0,0,13.721,0Zm-1.8-10.948a5.063,5.063,0,1,1-5.063-5.062A5.065,5.065,0,0,1,712.018,410.7Zm-2.532,0a2.531,2.531,0,1,0-2.531,2.532A2.531,2.531,0,0,0,709.486,410.7Z"
                    fill="#999" />
            </g>
        </g>
    </g>
</svg>
