<svg xmlns="http://www.w3.org/2000/svg" width="16" height="16" viewBox="0 0 16 16">
  <path id="Path_23488" data-name="Path 23488" d="M15.543-2.694l-3.5-1.5a.894.894,0,0,0-.294-.06.85.85,0,0,0-.581.276L9.618-2.084A13.457,13.457,0,0,1,4.081-7.622l1.894-1.55a.848.848,0,0,0,.276-.58.891.891,0,0,0-.06-.295l-1.5-3.5A.819.819,0,0,0,4-14a.907.907,0,0,0-.167.019l-3.25.75A.786.786,0,0,0,0-12.5H0A14.5,14.5,0,0,0,14.5,2h0a.786.786,0,0,0,.731-.581l.75-3.25A.913.913,0,0,0,16-2,.823.823,0,0,0,15.543-2.694Z" transform="translate(0 14)" fill="#fff"/>
</svg>
