<svg xmlns="http://www.w3.org/2000/svg" width="26.228" height="19.671" viewBox="0 0 26.228 19.671">
  <g id="Group_13528" data-name="Group 13528" transform="translate(6257 -7477.25)">
    <path id="Path_23065" data-name="Path 23065" d="M22.789-14.437H16.741a1.229,1.229,0,0,0-.869,2.1l1.66,1.66L13.773-6.92l-3.758-3.758a1.639,1.639,0,0,0-2.318,0L4.178-7.16A.82.82,0,0,0,4.178-6L5.336-4.842a.82.82,0,0,0,1.159,0L8.855-7.2l3.758,3.758a1.639,1.639,0,0,0,2.318,0l4.918-4.918,1.66,1.66a1.229,1.229,0,0,0,2.1-.869v-6.047A.819.819,0,0,0,22.789-14.437Z" transform="translate(-6254.771 7493.327)" fill="#999"/>
    <path id="Path_23064" data-name="Path 23064" d="M25.408.642H3.278V-14.93a.819.819,0,0,0-.82-.82H.82a.819.819,0,0,0-.82.82V2.281A1.639,1.639,0,0,0,1.639,3.921H25.408a.819.819,0,0,0,.82-.82V1.462A.819.819,0,0,0,25.408.642Z" transform="translate(-6257 7493)" fill="#999"/>
  </g>
</svg>
