<svg xmlns="http://www.w3.org/2000/svg" width="30" height="30" viewBox="0 0 30 30">
  <g id="Group_12597" data-name="Group 12597" transform="translate(-125 -9052)">
    <circle id="Ellipse_1636" data-name="Ellipse 1636" cx="15" cy="15" r="15" transform="translate(125 9052)" fill="#0a84ff"/>
    <path id="Path_23489" data-name="Path 23489" d="M11-4a2.987,2.987,0,0,0-1.868.653l-3.2-2A3.629,3.629,0,0,0,6-6a3.629,3.629,0,0,0-.071-.651l3.2-2A2.987,2.987,0,0,0,11-8a3,3,0,0,0,3-3,3,3,0,0,0-3-3,3,3,0,0,0-3,3,3.009,3.009,0,0,0,.071.651l-3.2,2A2.987,2.987,0,0,0,3-9,3,3,0,0,0,0-6,3,3,0,0,0,3-3a2.987,2.987,0,0,0,1.868-.653l3.2,2A3.619,3.619,0,0,0,8-1H8a3,3,0,0,0,3,3,3,3,0,0,0,3-3A3,3,0,0,0,11-4Z" transform="translate(132.562 9073.444)" fill="#fff"/>
  </g>
</svg>
