<svg xmlns="http://www.w3.org/2000/svg" width="49" height="49" viewBox="0 0 49 49">
  <g id="Group_13532" data-name="Group 13532" transform="translate(-210 -56)">
    <circle id="Ellipse_1635" data-name="Ellipse 1635" cx="24.5" cy="24.5" r="24.5" transform="translate(210 56)" fill="#fff"/>
    <g id="Group_13119" data-name="Group 13119" transform="translate(511.381 1296.533)">
      <g id="Group_13119-2" data-name="Group 13119" transform="translate(-286.335 -1225.015)">
        <path id="Path_23111" data-name="Path 23111" d="M-270.523-1192.973c-.076-.019-.153-.039-.229-.056a2,2,0,0,1-.978-.567q-2.741-2.747-5.487-5.489a.626.626,0,0,1,0-1.022c.087-.087.183-.165.256-.23l-6.151-6.15a1.816,1.816,0,0,1-.185.24.6.6,0,0,1-.972-.07q-.895-1.2-1.778-2.415a.606.606,0,0,1,.063-.852q.494-.5,1-1a.6.6,0,0,1,.837-.069q1.218.89,2.43,1.79a.6.6,0,0,1,.066.973c-.077.08-.159.154-.225.218l6.141,6.141a2.683,2.683,0,0,1,.21-.266.621.621,0,0,1,1.008,0l4.585,4.584c.336.336.682.664,1,1.012a1.907,1.907,0,0,1-.606,3.055,4.82,4.82,0,0,1-.58.172Z" transform="translate(286.201 1211.937)" fill="#0a84ff"/>
        <path id="Path_23112" data-name="Path 23112" d="M-284.625-1092.948a2.179,2.179,0,0,1-1.106-.512,1.926,1.926,0,0,1-.138-2.658c.049-.056.1-.109.153-.161l5.564-5.564c.034-.034.071-.067.121-.114l.8.8c.248.249.5.494.743.749a.214.214,0,0,1,.05.182,1.566,1.566,0,0,0,.27,1.71.444.444,0,0,1,.034.057c-.045.047-.089.1-.136.143-1.488,1.488-2.982,2.97-4.46,4.468a2.641,2.641,0,0,1-1.484.9Z" transform="translate(286.335 1111.912)" fill="#0a84ff"/>
        <path id="Path_23113" data-name="Path 23113" d="M-177.414-1217.577c.434-.433.851-.854,1.274-1.267a.23.23,0,0,0,.069-.271,4.353,4.353,0,0,1,1.047-4.536,4.358,4.358,0,0,1,3.876-1.319.42.42,0,0,1,.381.277.42.42,0,0,1-.135.467c-.3.3-.6.589-.889.891a1.972,1.972,0,0,0,.911,3.326,1.875,1.875,0,0,0,1.79-.448c.328-.3.636-.621.947-.938a.463.463,0,0,1,.511-.167c.207.075.255.253.28.458a4.6,4.6,0,0,1-.546,2.8,4.5,4.5,0,0,1-4.257,2.255,9.664,9.664,0,0,1-1.014-.2.2.2,0,0,0-.226.055c-.171.186-.352.362-.537.55a1.543,1.543,0,0,0-1.132-.451,5.139,5.139,0,0,0-.595.113.231.231,0,0,1-.174-.029C-176.357-1216.519-176.875-1217.039-177.414-1217.577Z" transform="translate(186.225 1225.015)" fill="#0a84ff"/>
      </g>
    </g>
  </g>
</svg>
