<svg xmlns="http://www.w3.org/2000/svg" width="32.13" height="28.019" viewBox="0 0 32.13 28.019">
  <g id="Group_12650" data-name="Group 12650" transform="translate(-28.837 -552)">
    <g id="information_1_" data-name="information (1)" transform="translate(51.033 551.968)">
      <g id="Group_12604" data-name="Group 12604" transform="translate(0 0.032)">
        <path id="Path_22907" data-name="Path 22907" d="M.2,9.4A3.406,3.406,0,0,0,1.464,8.032,4.576,4.576,0,0,1,0,4.708,4.847,4.847,0,0,1,4.968.032,4.847,4.847,0,0,1,9.935,4.708,4.847,4.847,0,0,1,4.968,9.383a6.083,6.083,0,0,1-1.3-.148,6.358,6.358,0,0,1-3.194.729C.256,9.961.1,10,.017,9.776A.3.3,0,0,1,.2,9.4Zm4.19-2.345a.582.582,0,0,0,1.164,0V4.708a.582.582,0,0,0-1.164,0Zm.582-3.822a.582.582,0,1,0-.582-.582A.582.582,0,0,0,4.968,3.233Z" transform="translate(0 -0.032)" fill="#999"/>
      </g>
    </g>
    <path id="Path_22913" data-name="Path 22913" d="M1121.1,462.934a1.366,1.366,0,0,0-1.542-.608c-.642.158-.634.709-.636,1.213,0,.407,0,.814,0,1.221l-.223.005c-.024-.23-.057-.461-.071-.691-.119-1.86-.246-3.72-.344-5.581a1.809,1.809,0,0,0-.983-1.752,11.075,11.075,0,0,0-3.266-1.031c-1.252-.1-2.51-.119-3.771-.12s-2.519.019-3.771.12a11.075,11.075,0,0,0-3.266,1.031,1.809,1.809,0,0,0-.983,1.752c-.1,1.861-.226,3.721-.344,5.581-.014.23-.047.461-.071.691l-.223-.005c0-.407,0-.814,0-1.221,0-.5.006-1.055-.636-1.213a1.365,1.365,0,0,0-1.542.608,3.933,3.933,0,0,0-.164,3c.05.216.531.412.847.487a6.025,6.025,0,0,0,1.246.019c-.136.786.284,1.535-.432,2.237-.484.476-.193,2.655.247,3.194a1.078,1.078,0,0,1,.207.605c.027.718-.04,1.442.036,2.155a16.622,16.622,0,0,0,.412,1.793,7.054,7.054,0,0,1,.1.793,1.192,1.192,0,0,0,1.276,1.183c.143.009.286.009.429.008,1.446-.005,1.637-.146,1.946-1.468h9.373c.309,1.322.5,1.462,1.946,1.468.143,0,.286,0,.429-.008a1.192,1.192,0,0,0,1.276-1.183,7.026,7.026,0,0,1,.1-.793,16.65,16.65,0,0,0,.411-1.793c.076-.713.009-1.437.036-2.155a1.078,1.078,0,0,1,.207-.605c.44-.539.731-2.719.247-3.194-.716-.7-.3-1.452-.432-2.237a6.025,6.025,0,0,0,1.246-.019c.316-.074.8-.271.847-.487A3.934,3.934,0,0,0,1121.1,462.934Zm-17.666-1.735h13.66v4.325c-2.266.119-4.547.179-6.83.181s-4.564-.062-6.83-.181Zm10.823,7.506q-2,.028-3.994.027t-3.994-.027a2.879,2.879,0,0,1-.976-.422l.09-.213h9.759l.09.213A2.878,2.878,0,0,1,1114.261,468.705Zm.954,1.363c-.288.144-.576.411-.867.414q-2.038.026-4.081.026t-4.081-.026c-.292,0-.579-.27-.867-.414l.107-.2h9.682Zm-13.411.495c-.019-1.4-.026-1.4.7-1.522v2.31C1101.857,471.363,1101.811,470.994,1101.8,470.563Zm1.243,3.817a.675.675,0,1,1,.714-.674A.7.7,0,0,1,1103.047,474.38Zm1.88,0a.675.675,0,1,1,.714-.674A.7.7,0,0,1,1104.928,474.38Zm5.34-2.095q-2.049,0-4.1-.024c-.287,0-.57-.256-.855-.392.033-.062.067-.125.1-.187h9.7c.034.062.069.125.1.187-.284.136-.567.39-.854.392Q1112.315,472.285,1110.267,472.285Zm5.34,2.095a.675.675,0,1,1,.714-.674A.695.695,0,0,1,1115.607,474.38Zm1.88,0a.675.675,0,1,1,.714-.674A.7.7,0,0,1,1117.487,474.38Zm1.243-3.817c-.007.431-.053.8-.7.788v-2.31C1118.756,469.165,1118.749,469.165,1118.73,470.563Z" transform="translate(-1070.213 101.606)" fill="#999"/>
  </g>
</svg>
