<svg xmlns="http://www.w3.org/2000/svg" width="23.937" height="23.934" viewBox="0 0 23.937 23.934">
  <g id="information_1_" data-name="information (1)" transform="translate(0 -0.032)">
    <g id="Group_12604" data-name="Group 12604" transform="translate(0 0.032)">
      <path id="Path_22907" data-name="Path 22907" d="M23.464,22.6a8.207,8.207,0,0,1-3.053-3.3A11.025,11.025,0,0,0,23.933,11.3C23.933,5.111,18.539.032,11.966.032S0,5.111,0,11.3,5.394,22.563,11.966,22.563a14.657,14.657,0,0,0,3.138-.357A15.32,15.32,0,0,0,22.8,23.961c.522-.007.9.088,1.1-.452A.712.712,0,0,0,23.464,22.6Zm-10.1-5.649a1.4,1.4,0,0,1-2.8,0V11.3a1.4,1.4,0,1,1,2.8,0Zm-1.4-9.209a1.4,1.4,0,1,1,1.4-1.4A1.4,1.4,0,0,1,11.966,7.745Z" transform="translate(0 -0.032)" fill="#999"/>
    </g>
  </g>
</svg>
