<svg xmlns="http://www.w3.org/2000/svg" width="23.435" height="27.052" viewBox="0 0 23.435 27.052">
  <g id="fvOlej.tif" transform="translate(-601.031 -238.971)">
    <g id="Group_12608" data-name="Group 12608" transform="translate(601.031 238.971)">
      <path id="Path_22910" data-name="Path 22910" d="M604.286,276.466c1.156,1.268,2.281,2.521,3.428,3.754a1.791,1.791,0,0,0,2.844.009c.751-.789,1.479-1.6,2.232-2.387a5.964,5.964,0,0,0,1.745-4.542,1.837,1.837,0,0,1,.009-.224c0-.015.022-.029.034-.044,3.954-.078,8.65,4.34,9.637,9.066a11.712,11.712,0,1,1-19.929-5.632Zm17.734,4.1c-.737-1.016-1.377-2.008-2.13-2.9s-.812-.868-1.861-.269a2.574,2.574,0,0,1-.393.217.95.95,0,0,0-.6.856c-.2,1.107-.436,2.208-.663,3.31-.149.724-.413.936-1.161.94-.807,0-1.615.014-2.423,0-.307-.006-.548.042-.685.349a5.187,5.187,0,0,1-4.1,3.088.751.751,0,0,0-.159.056,1.082,1.082,0,0,1-1.316-.316c-.73-.757-1.461-1.515-2.233-2.229a11.26,11.26,0,0,0-1.3-.9,10.087,10.087,0,0,0,.939,6.314c.251.508.5.753,1.109.527a15.9,15.9,0,0,1,1.959-.5,1.632,1.632,0,0,1,.609-.037c1.426.23,2.842.573,4.276.688a1.948,1.948,0,0,1,2.038,1.848,24.153,24.153,0,0,0,.735,2.614,9.872,9.872,0,0,0,3.638-1.45c.9-.549,1.4-1.191,1.023-2.277a.588.588,0,0,1-.025-.223,1.867,1.867,0,0,0-1.408-2.19c-.593-.177-.7-.593-.548-1.23.26-1.056.492-2.121.81-3.159a1.983,1.983,0,0,1,.68-.958C619.8,282.007,620.837,281.358,622.02,280.57Z" transform="translate(-601.031 -269.193)" fill="#999"/>
      <path id="Path_22911" data-name="Path 22911" d="M642.087,243.5a4.78,4.78,0,0,1-1.217,3.179c-.83.92-1.677,1.824-2.529,2.724a.9.9,0,0,1-1.5.006c-.864-.914-1.737-1.821-2.566-2.767a4.656,4.656,0,0,1,.321-6.538,4.52,4.52,0,0,1,6.3.308A4.589,4.589,0,0,1,642.087,243.5Zm-4.512,1.785a1.8,1.8,0,1,0-1.789-1.8A1.811,1.811,0,0,0,637.575,245.282Z" transform="translate(-629.477 -238.971)" fill="#999"/>
    </g>
  </g>
</svg>
