<svg xmlns="http://www.w3.org/2000/svg" xmlns:xlink="http://www.w3.org/1999/xlink" width="27" height="27" viewBox="0 0 27 27">
  <defs>
    <clipPath id="clip-path">
      <path id="Icon" d="M0,13.5A13.5,13.5,0,1,1,13.5,27,13.515,13.515,0,0,1,0,13.5Zm2.25,0a11.225,11.225,0,0,0,3.72,8.351l.013-.137A3.872,3.872,0,0,1,7.27,19.4a4.729,4.729,0,0,1,2.461-.73A2.31,2.31,0,0,0,10.7,18.4a1.245,1.245,0,0,0,.645-.714c0-.427-.011-1.313-.011-1.313,0-.073-.023-.036-.076-.1a3.227,3.227,0,0,1-.674-1.048,4.742,4.742,0,0,1-.323-1.211.147.147,0,0,0-.084-.112.76.76,0,0,1-.437-.347,2.1,2.1,0,0,1-.289-.94.976.976,0,0,1,.313-.91.164.164,0,0,0,.016-.124c-.088-.452-.193-.9-.265-1.359A6.43,6.43,0,0,1,9.534,8a3.037,3.037,0,0,1,1.632-2.3,4.855,4.855,0,0,1,2.183-.509,5.85,5.85,0,0,1,1.115.112,1.605,1.605,0,0,1,1,.555.4.4,0,0,0,.279.17,2.124,2.124,0,0,1,1.67,1.382A4.04,4.04,0,0,1,17.663,8.8a8.9,8.9,0,0,1-.436,2.775.134.134,0,0,0,.045.173.692.692,0,0,1,.254.431,1.948,1.948,0,0,1-.317,1.451.625.625,0,0,1-.383.274.167.167,0,0,0-.088.105c-.1.346-.173.707-.3,1.046a3.1,3.1,0,0,1-.689,1.25.1.1,0,0,0-.027.073c0,.427,0,.887,0,1.313a1.23,1.23,0,0,0,.645.714,2.3,2.3,0,0,0,.968.266,4.739,4.739,0,0,1,2.462.73,3.872,3.872,0,0,1,1.287,2.312l.008.083A11.247,11.247,0,1,0,2.25,13.5Z" transform="translate(0 0.066)" fill="#999"/>
    </clipPath>
  </defs>
  <g id="Glyphs_Small_Profile" data-name="Glyphs/Small/Profile" transform="translate(-3 -3.066)">
    <g id="Group_60" data-name="Group 60" transform="translate(3 3)">
      <path id="Icon-2" data-name="Icon" d="M0,13.5A13.5,13.5,0,1,1,13.5,27,13.515,13.515,0,0,1,0,13.5Zm2.25,0a11.225,11.225,0,0,0,3.72,8.351l.013-.137A3.872,3.872,0,0,1,7.27,19.4a4.729,4.729,0,0,1,2.461-.73A2.31,2.31,0,0,0,10.7,18.4a1.245,1.245,0,0,0,.645-.714c0-.427-.011-1.313-.011-1.313,0-.073-.023-.036-.076-.1a3.227,3.227,0,0,1-.674-1.048,4.742,4.742,0,0,1-.323-1.211.147.147,0,0,0-.084-.112.76.76,0,0,1-.437-.347,2.1,2.1,0,0,1-.289-.94.976.976,0,0,1,.313-.91.164.164,0,0,0,.016-.124c-.088-.452-.193-.9-.265-1.359A6.43,6.43,0,0,1,9.534,8a3.037,3.037,0,0,1,1.632-2.3,4.855,4.855,0,0,1,2.183-.509,5.85,5.85,0,0,1,1.115.112,1.605,1.605,0,0,1,1,.555.4.4,0,0,0,.279.17,2.124,2.124,0,0,1,1.67,1.382A4.04,4.04,0,0,1,17.663,8.8a8.9,8.9,0,0,1-.436,2.775.134.134,0,0,0,.045.173.692.692,0,0,1,.254.431,1.948,1.948,0,0,1-.317,1.451.625.625,0,0,1-.383.274.167.167,0,0,0-.088.105c-.1.346-.173.707-.3,1.046a3.1,3.1,0,0,1-.689,1.25.1.1,0,0,0-.027.073c0,.427,0,.887,0,1.313a1.23,1.23,0,0,0,.645.714,2.3,2.3,0,0,0,.968.266,4.739,4.739,0,0,1,2.462.73,3.872,3.872,0,0,1,1.287,2.312l.008.083A11.247,11.247,0,1,0,2.25,13.5Z" transform="translate(0 0.066)" fill="#999"/>
    </g>
  </g>
</svg>
