<svg xmlns="http://www.w3.org/2000/svg" xmlns:xlink="http://www.w3.org/1999/xlink" width="50" height="55.838" viewBox="0 0 50 55.838">
  <defs>
    <filter id="Union_64" x="0" y="0" width="50" height="55.838" filterUnits="userSpaceOnUse">
      <feOffset dy="3" input="SourceAlpha"/>
      <feGaussianBlur stdDeviation="3" result="blur"/>
      <feFlood flood-opacity="0.161"/>
      <feComposite operator="in" in2="blur"/>
      <feComposite in="SourceGraphic"/>
    </filter>
  </defs>
  <g id="Group_13537" data-name="Group 13537" transform="translate(-64 -312)">
    <g transform="matrix(1, 0, 0, 1, 64, 312)" filter="url(#Union_64)">
      <path id="Union_64-2" data-name="Union 64" d="M14.8,37.154l-2.345-5.548a16,16,0,1,1,7.1,0L17.2,37.154a1.263,1.263,0,0,1-1.2.684A1.261,1.261,0,0,1,14.8,37.154Z" transform="translate(9 6)" fill="#ff6969"/>
    </g>
    <path id="Path_23492" data-name="Path 23492" d="M2.376-8.867c-1.361,0-2.484-.883-4.195-.883a4.935,4.935,0,0,0-1.728.305,1.7,1.7,0,0,0,.094-.508c0-.025,0-.065,0-.09a1.427,1.427,0,0,0-1.36-1.331A1.422,1.422,0,0,0-6.3-9.953a1.42,1.42,0,0,0,.609,1.167v9.8a.609.609,0,0,0,.609.609h.406a.609.609,0,0,0,.609-.609v-2.4a7.094,7.094,0,0,1,2.906-.562c1.361,0,2.484.883,4.195.883A5.315,5.315,0,0,0,6.148-2.1.811.811,0,0,0,6.5-2.766V-8.939a.812.812,0,0,0-1.155-.737A7.392,7.392,0,0,1,2.376-8.867Z" transform="translate(89 339)" fill="#fff"/>
  </g>
</svg>
